<?xml version="1.0" encoding="UTF-8" standalone="no"?>
<!DOCTYPE svg PUBLIC "-//W3C//DTD SVG 1.1//EN" "http://www.w3.org/Graphics/SVG/1.1/DTD/svg11.dtd">
<svg width="100%" height="100%" viewBox="0 0 28 28" version="1.1" xmlns="http://www.w3.org/2000/svg" xmlns:xlink="http://www.w3.org/1999/xlink" xml:space="preserve" xmlns:serif="http://www.serif.com/" style="fill-rule:evenodd;clip-rule:evenodd;stroke-linecap:round;stroke-linejoin:round;">
    <path d="M21.425,6.575C25.525,10.676 25.525,17.324 21.425,21.425C17.324,25.525 10.676,25.525 6.575,21.425C2.475,17.324 2.475,10.676 6.575,6.575C10.676,2.475 17.324,2.475 21.425,6.575" style="fill:none;fill-rule:nonzero;stroke:rgb(31,194,107);stroke-width:2.5px;"/>
    <g transform="matrix(1.5,0,0,1.5,-7,-8.5)">
        <circle cx="14" cy="12" r="1" style="fill:rgb(31,194,107);stroke:rgb(31,194,107);stroke-width:0.67px;stroke-linecap:butt;stroke-miterlimit:2;"/>
    </g>
    <g transform="matrix(1.5,0,0,1.14286,-7,-1.85714)">
        <path d="M15,13.5C15,13.224 14.776,13 14.5,13L13.5,13C13.224,13 13,13.224 13,13.5L13,19.5C13,19.776 13.224,20 13.5,20L14.5,20C14.776,20 15,19.776 15,19.5L15,13.5Z" style="fill:rgb(31,194,107);"/>
    </g>
</svg>
