<?xml version="1.0" encoding="UTF-8" standalone="no"?>
<!DOCTYPE svg PUBLIC "-//W3C//DTD SVG 1.1//EN" "http://www.w3.org/Graphics/SVG/1.1/DTD/svg11.dtd">
<svg width="100%" height="100%" viewBox="0 0 28 28" version="1.1" xmlns="http://www.w3.org/2000/svg" xmlns:xlink="http://www.w3.org/1999/xlink" xml:space="preserve" xmlns:serif="http://www.serif.com/" style="fill-rule:evenodd;clip-rule:evenodd;stroke-linecap:round;stroke-linejoin:round;">
    <path d="M15.541,18.669L18.669,18.669" style="fill:none;fill-rule:nonzero;stroke:rgb(255,166,119);stroke-width:2.3px;"/>
    <path d="M17.105,18.669L17.105,12.833L15.401,14.374" style="fill:none;fill-rule:nonzero;stroke:rgb(255,166,119);stroke-width:2.3px;"/>
    <path d="M23.507,15.357L24.471,9.726C24.715,8.3 23.616,6.997 22.169,6.997L5.831,6.997C4.384,6.997 3.286,8.3 3.529,9.725L4.494,15.356C4.538,15.617 4.538,15.884 4.494,16.144L3.529,21.776C3.286,23.202 4.384,24.504 5.831,24.504L22.17,24.504C23.616,24.504 24.715,23.202 24.471,21.777L23.507,16.145C23.462,15.884 23.462,15.618 23.507,15.357Z" style="fill:none;stroke:rgb(255,166,119);stroke-width:2.5px;"/>
    <path d="M22.17,6.997L22.302,6.223C22.547,4.798 21.449,3.496 20.002,3.496L7.999,3.496C6.552,3.496 5.454,4.798 5.698,6.223L5.83,6.997" style="fill:none;fill-rule:nonzero;stroke:rgb(255,166,119);stroke-width:2.5px;"/>
    <path d="M9.331,13.953C9.517,13.311 10.084,12.833 10.786,12.833C11.635,12.833 12.325,13.522 12.325,14.372C12.325,15.133 11.708,15.751 10.947,15.751C11.708,15.751 12.325,16.368 12.325,17.129C12.325,17.979 11.637,18.669 10.786,18.669C10.084,18.669 9.517,18.19 9.331,17.548" style="fill:none;fill-rule:nonzero;stroke:rgb(255,166,119);stroke-width:2.3px;"/>
</svg>
