<?xml version="1.0" encoding="UTF-8" standalone="no"?>
<!DOCTYPE svg PUBLIC "-//W3C//DTD SVG 1.1//EN" "http://www.w3.org/Graphics/SVG/1.1/DTD/svg11.dtd">
<svg width="100%" height="100%" viewBox="0 0 28 28" version="1.1" xmlns="http://www.w3.org/2000/svg" xmlns:xlink="http://www.w3.org/1999/xlink" xml:space="preserve" xmlns:serif="http://www.serif.com/" style="fill-rule:evenodd;clip-rule:evenodd;stroke-linecap:round;stroke-linejoin:round;">
    <path d="M21.425,6.575C25.525,10.676 25.525,17.324 21.425,21.425C17.324,25.525 10.676,25.525 6.575,21.425C2.475,17.324 2.475,10.676 6.575,6.575C10.676,2.475 17.324,2.475 21.425,6.575" style="fill:none;fill-rule:nonzero;stroke:rgb(100,123,220);stroke-width:2.5px;"/>
    <path d="M16.321,9.711C17.602,10.993 17.602,13.071 16.321,14.352C15.039,15.634 12.961,15.634 11.679,14.352C10.398,13.071 10.398,10.993 11.679,9.711C12.961,8.43 15.039,8.43 16.321,9.711" style="fill:none;fill-rule:nonzero;stroke:rgb(100,123,220);stroke-width:2.5px;"/>
    <path d="M20.658,22.118C18.984,20.355 16.623,19.25 14,19.25C11.377,19.25 9.016,20.355 7.342,22.119" style="fill:none;fill-rule:nonzero;stroke:rgb(100,123,220);stroke-width:2.5px;"/>
</svg>
