<?xml version="1.0" encoding="UTF-8" standalone="no"?>
<!DOCTYPE svg PUBLIC "-//W3C//DTD SVG 1.1//EN" "http://www.w3.org/Graphics/SVG/1.1/DTD/svg11.dtd">
<svg width="100%" height="100%" viewBox="0 0 24 24" version="1.1" xmlns="http://www.w3.org/2000/svg" xmlns:xlink="http://www.w3.org/1999/xlink" xml:space="preserve" xmlns:serif="http://www.serif.com/" style="fill-rule:evenodd;clip-rule:evenodd;stroke-linecap:round;stroke-linejoin:round;">
    <path d="M19.021,12.045L19.021,5.045C19.021,3.94 18.126,3.045 17.021,3.045L5.021,3.045C3.916,3.045 3.021,3.94 3.021,5.045L3.021,17.045C3.021,18.15 3.916,19.045 5.021,19.045L12.021,19.045" style="fill:none;fill-rule:nonzero;stroke:black;stroke-width:2px;"/>
    <path d="M20.652,19.262L19.238,20.676C18.847,21.067 18.214,21.067 17.824,20.676L10.293,13.145C10.105,12.958 10,12.703 10,12.438L10,10.024L12.414,10.024C12.679,10.024 12.934,10.129 13.121,10.317L20.652,17.848C21.043,18.238 21.043,18.871 20.652,19.262Z" style="fill:none;stroke:black;stroke-width:2px;"/>
    <path d="M18.86,16.06L16.03,18.88" style="fill:none;fill-rule:nonzero;stroke:black;stroke-width:2px;"/>
</svg>
