<?xml version="1.0" encoding="UTF-8" standalone="no"?>
<!DOCTYPE svg PUBLIC "-//W3C//DTD SVG 1.1//EN" "http://www.w3.org/Graphics/SVG/1.1/DTD/svg11.dtd">
<svg width="100%" height="100%" viewBox="0 0 24 24" version="1.1" xmlns="http://www.w3.org/2000/svg" xmlns:xlink="http://www.w3.org/1999/xlink" xml:space="preserve" xmlns:serif="http://www.serif.com/" style="fill-rule:evenodd;clip-rule:evenodd;stroke-linecap:round;stroke-linejoin:round;">
    <path d="M20,5C20,3.895 19.105,3 18,3" style="fill:none;fill-rule:nonzero;stroke:rgb(27,28,31);stroke-width:2px;"/>
    <path d="M18,3L6,3C4.895,3 4,3.895 4,5L4,19C4,20.105 4.895,21 6,21L18,21C19.105,21 20,20.105 20,19" style="fill:none;fill-rule:nonzero;stroke:rgb(27,28,31);stroke-width:2px;"/>
    <path d="M8,3L8,21" style="fill:none;fill-rule:nonzero;stroke:rgb(27,28,31);stroke-width:2px;"/>
    <path d="M20,14L18,14C16.895,14 16,13.105 16,12C16,10.895 16.895,10 18,10L20,10C20.552,10 21,10.448 21,11L21,13C21,13.552 20.552,14 20,14Z" style="fill:none;stroke:rgb(27,28,31);stroke-width:2px;"/>
    <path d="M20,5L20,10" style="fill:none;fill-rule:nonzero;stroke:rgb(27,28,31);stroke-width:2px;"/>
    <path d="M20,19L20,14" style="fill:none;fill-rule:nonzero;stroke:rgb(27,28,31);stroke-width:2px;"/>
</svg>
