<?xml version="1.0" encoding="UTF-8" standalone="no"?>
<!DOCTYPE svg PUBLIC "-//W3C//DTD SVG 1.1//EN" "http://www.w3.org/Graphics/SVG/1.1/DTD/svg11.dtd">
<svg width="100%" height="100%" viewBox="0 0 24 24" version="1.1" xmlns="http://www.w3.org/2000/svg" xmlns:xlink="http://www.w3.org/1999/xlink" xml:space="preserve" xmlns:serif="http://www.serif.com/" style="fill-rule:evenodd;clip-rule:evenodd;stroke-linecap:round;stroke-linejoin:round;">
    <path d="M2,8.101C2,11.471 4.732,14.202 8.101,14.202C8.825,14.202 9.517,14.069 10.161,13.838" style="fill:none;fill-rule:nonzero;stroke:rgb(27,28,31);stroke-width:2px;"/>
    <path d="M8.101,2C4.732,2 2,4.732 2,8.101" style="fill:none;fill-rule:nonzero;stroke:rgb(27,28,31);stroke-width:2px;"/>
    <path d="M13.838,10.162C14.07,9.517 14.202,8.826 14.202,8.102C14.203,4.732 11.471,2 8.101,2" style="fill:none;fill-rule:nonzero;stroke:rgb(27,28,31);stroke-width:2px;"/>
    <path d="M13.97,14.245L13.97,14.796" style="fill:none;fill-rule:nonzero;stroke:rgb(27,28,31);stroke-width:2px;"/>
    <path d="M17.828,14.245L17.828,14.796" style="fill:none;fill-rule:nonzero;stroke:rgb(27,28,31);stroke-width:2px;"/>
    <path d="M17.225,17.785C16.898,17.95 16.452,18.103 15.898,18.103C15.316,18.103 14.849,17.934 14.519,17.76" style="fill:none;fill-rule:nonzero;stroke:rgb(27,28,31);stroke-width:2px;"/>
    <path d="M6.172,6.448L6.172,6.999" style="fill:none;fill-rule:nonzero;stroke:rgb(27,28,31);stroke-width:1.5px;"/>
    <path d="M10.03,6.448L10.03,6.999" style="fill:none;fill-rule:nonzero;stroke:rgb(27,28,31);stroke-width:1.5px;"/>
    <path d="M6.722,10.281C7.049,10.116 7.495,9.963 8.049,9.963C8.631,9.963 9.098,10.132 9.428,10.306" style="fill:none;fill-rule:nonzero;stroke:rgb(27,28,31);stroke-width:1.5px;"/>
    <path d="M9.797,15.899C9.797,19.269 12.528,22 15.898,22C19.268,22 22,19.269 22,15.899C22,12.529 19.269,9.798 15.899,9.798C12.529,9.798 9.797,12.529 9.797,15.899Z" style="fill:none;stroke:rgb(27,28,31);stroke-width:2px;"/>
</svg>
