<?xml version="1.0" encoding="UTF-8" standalone="no"?>
<!DOCTYPE svg PUBLIC "-//W3C//DTD SVG 1.1//EN" "http://www.w3.org/Graphics/SVG/1.1/DTD/svg11.dtd">
<svg width="100%" height="100%" viewBox="0 0 32 32" version="1.1" xmlns="http://www.w3.org/2000/svg" xmlns:xlink="http://www.w3.org/1999/xlink" xml:space="preserve" xmlns:serif="http://www.serif.com/" style="fill-rule:evenodd;clip-rule:evenodd;stroke-linecap:round;stroke-linejoin:round;">
    <path d="M9.333,13.333C9.86,12.687 10.58,12.32 11.333,12.32C12.087,12.32 12.787,12.687 13.333,13.333" style="fill:none;fill-rule:nonzero;stroke:rgb(27,28,31);stroke-width:2.5px;"/>
    <path d="M18.667,13.333C19.193,12.687 19.913,12.32 20.667,12.32C21.42,12.32 22.12,12.687 22.667,13.333" style="fill:none;fill-rule:nonzero;stroke:rgb(27,28,31);stroke-width:2.5px;"/>
    <path d="M24.485,7.515C29.172,12.201 29.172,19.799 24.485,24.485C19.799,29.172 12.201,29.172 7.515,24.485C2.829,19.799 2.829,12.201 7.515,7.515C12.201,2.828 19.799,2.828 24.485,7.515" style="fill:none;fill-rule:nonzero;stroke:rgb(27,28,31);stroke-width:2.5px;"/>
    <path d="M20.667,19.584C20.667,19.584 18.916,21.333 16,21.333C13.083,21.333 11.333,19.584 11.333,19.584" style="fill:none;fill-rule:nonzero;stroke:rgb(27,28,31);stroke-width:2.5px;"/>
</svg>
