<?xml version="1.0" encoding="UTF-8" standalone="no"?>
<!DOCTYPE svg PUBLIC "-//W3C//DTD SVG 1.1//EN" "http://www.w3.org/Graphics/SVG/1.1/DTD/svg11.dtd">
<svg width="100%" height="100%" viewBox="0 0 32 32" version="1.1" xmlns="http://www.w3.org/2000/svg" xmlns:xlink="http://www.w3.org/1999/xlink" xml:space="preserve" xmlns:serif="http://www.serif.com/" style="fill-rule:evenodd;clip-rule:evenodd;">
    <path d="M11.333,11C11.84,11 12.258,11.376 12.324,11.864L12.333,12L12.333,13.333C12.333,13.886 11.886,14.333 11.333,14.333C10.827,14.333 10.409,13.957 10.343,13.469L10.333,13.333L10.333,12C10.333,11.448 10.781,11 11.333,11Z" style="fill:rgb(27,28,31);fill-rule:nonzero;stroke:rgb(27,28,31);stroke-width:0.5px;"/>
    <path d="M20.667,11C21.173,11 21.591,11.376 21.658,11.864L21.667,12L21.667,13.333C21.667,13.886 21.219,14.333 20.667,14.333C20.16,14.333 19.742,13.957 19.676,13.469L19.667,13.333L19.667,12C19.667,11.448 20.114,11 20.667,11Z" style="fill:rgb(27,28,31);fill-rule:nonzero;stroke:rgb(27,28,31);stroke-width:0.5px;"/>
    <path d="M20.009,18.831C20.425,18.467 21.057,18.51 21.42,18.927C21.783,19.343 21.74,19.975 21.324,20.337C18.273,22.999 13.726,22.999 10.676,20.337C10.26,19.975 10.217,19.343 10.58,18.927C10.943,18.51 11.575,18.467 11.991,18.831C14.288,20.834 17.712,20.834 20.009,18.831Z" style="fill:rgb(27,28,31);fill-rule:nonzero;stroke:rgb(27,28,31);stroke-width:0.5px;"/>
    <path d="M26.086,2.835C26.509,2.562 26.993,2.393 27.499,2.346L27.754,2.333C28.607,2.325 29.427,2.665 30.02,3.273L30.071,3.325C31.31,4.598 31.31,6.625 30.067,7.901L27.728,10.276C27.273,10.739 26.65,11 26,11C25.35,11 24.728,10.739 24.272,10.276L21.929,7.897C20.77,6.707 20.688,4.842 21.754,3.521L21.933,3.321C22.533,2.711 23.354,2.368 24.209,2.368C24.809,2.368 25.391,2.536 25.892,2.846L25.983,2.908L26.086,2.835ZM28.592,4.673C28.377,4.453 28.081,4.33 27.774,4.333C27.467,4.336 27.174,4.465 26.96,4.693L26.726,4.94C26.337,5.351 25.685,5.358 25.288,4.954L25.061,4.724C24.837,4.496 24.53,4.368 24.209,4.368C23.889,4.368 23.583,4.496 23.394,4.686L23.281,4.812C22.879,5.311 22.911,6.038 23.358,6.498L25.697,8.873C25.777,8.954 25.886,9 26,9C26.114,9 26.223,8.954 26.303,8.873L28.638,6.502C29.121,6.006 29.121,5.216 28.642,4.725L28.592,4.673Z" style="fill:rgb(27,28,31);"/>
    <path d="M3.833,9.519C6.76,4.134 12.897,1.336 18.882,2.656C19.421,2.775 19.762,3.308 19.643,3.848C19.524,4.387 18.991,4.728 18.451,4.609C13.336,3.481 8.092,5.873 5.59,10.474C3.088,15.076 3.931,20.778 7.658,24.458C11.386,28.138 17.098,28.909 21.667,26.348C26.237,23.788 28.561,18.513 27.368,13.413C27.243,12.875 27.576,12.337 28.114,12.211C28.652,12.086 29.19,12.42 29.316,12.957C30.712,18.925 27.992,25.097 22.645,28.093C17.298,31.089 10.615,30.187 6.253,25.881C1.892,21.575 0.905,14.903 3.833,9.519Z" style="fill:rgb(27,28,31);fill-rule:nonzero;stroke:rgb(27,28,31);stroke-width:0.5px;"/>
</svg>
