<?xml version="1.0" encoding="UTF-8" standalone="no"?>
<!DOCTYPE svg PUBLIC "-//W3C//DTD SVG 1.1//EN" "http://www.w3.org/Graphics/SVG/1.1/DTD/svg11.dtd">
<svg width="100%" height="100%" viewBox="0 0 16 16" version="1.1" xmlns="http://www.w3.org/2000/svg" xmlns:xlink="http://www.w3.org/1999/xlink" xml:space="preserve" xmlns:serif="http://www.serif.com/" style="fill-rule:evenodd;clip-rule:evenodd;stroke-linecap:round;stroke-linejoin:round;">
    <path d="M8,5L8,8L11,8M8,15C7.071,15 6.607,15 6.217,14.949C3.524,14.594 1.406,12.476 1.051,9.783C1,9.393 1,8.929 1,8C1,7.071 1,6.607 1.051,6.217C1.406,3.524 3.524,1.406 6.217,1.051C6.607,1 7.071,1 8,1C8.929,1 9.393,1 9.783,1.051C12.476,1.406 14.594,3.524 14.949,6.217C15,6.607 15,7.071 15,8C15,8.929 15,9.393 14.949,9.783C14.594,12.476 12.476,14.594 9.783,14.949C9.393,15 8.929,15 8,15Z" style="fill:none;fill-rule:nonzero;stroke:black;stroke-width:2px;"/>
</svg>
