<?xml version="1.0" encoding="UTF-8" standalone="no"?>
<!DOCTYPE svg PUBLIC "-//W3C//DTD SVG 1.1//EN" "http://www.w3.org/Graphics/SVG/1.1/DTD/svg11.dtd">
<svg width="100%" height="100%" viewBox="0 0 24 24" version="1.1" xmlns="http://www.w3.org/2000/svg" xmlns:xlink="http://www.w3.org/1999/xlink" xml:space="preserve" xmlns:serif="http://www.serif.com/" style="fill-rule:evenodd;clip-rule:evenodd;stroke-linejoin:round;stroke-miterlimit:2;">
    <g id="Group_153924" transform="matrix(1,0,0,1,-217.2,-300)">
        <g id="Ellipse_1188" transform="matrix(1,0,0,1,217.2,300)">
            <circle cx="12" cy="12" r="12" style="fill:rgb(222,232,255);"/>
        </g>
        <g id="Group_153923" transform="matrix(1,0,0,1,0.6,0.6)">
            <g id="path" transform="matrix(1,0,0,1,223.2,307.8)">
                <path d="M3.125,0C3.417,-0.005 3.709,0.026 3.993,0.091C4.233,0.142 4.46,0.239 4.664,0.376C4.852,0.513 5,0.696 5.095,0.908C5.203,1.169 5.255,1.449 5.248,1.732C5.261,2.042 5.181,2.348 5.021,2.614C4.851,2.863 4.617,3.063 4.344,3.191C4.715,3.292 5.038,3.522 5.254,3.84C5.462,4.176 5.567,4.567 5.554,4.962C5.561,5.277 5.496,5.59 5.363,5.876C5.241,6.126 5.062,6.344 4.84,6.512C4.612,6.678 4.356,6.801 4.084,6.875C3.801,6.953 3.509,6.992 3.216,6.992L0,6.992L0,0L3.125,0ZM2.94,2.827C3.169,2.837 3.395,2.768 3.58,2.633C3.759,2.473 3.853,2.237 3.832,1.997C3.838,1.859 3.81,1.721 3.752,1.595C3.702,1.496 3.626,1.413 3.53,1.355C3.433,1.293 3.325,1.251 3.211,1.232C3.087,1.209 2.962,1.198 2.836,1.2L1.458,1.2L1.458,2.834L2.94,2.834L2.94,2.827ZM3.02,5.804C3.159,5.806 3.298,5.791 3.433,5.76C3.557,5.733 3.675,5.681 3.78,5.609C3.882,5.538 3.965,5.442 4.02,5.33C4.084,5.188 4.114,5.032 4.106,4.876C4.134,4.588 4.027,4.303 3.817,4.105C3.597,3.943 3.327,3.862 3.054,3.878L1.458,3.878L1.458,5.804L3.02,5.804Z" style="fill:rgb(0,87,255);fill-rule:nonzero;"/>
            </g>
            <g id="path-2" transform="matrix(1,0,0,1,170.807,293.083)">
                <path d="M60.029,20.495C60.26,20.709 60.569,20.819 60.884,20.8C61.131,20.806 61.373,20.73 61.573,20.585C61.736,20.479 61.859,20.322 61.924,20.138L63.086,20.138C62.963,20.659 62.66,21.12 62.231,21.441C61.82,21.714 61.334,21.852 60.841,21.836C60.488,21.841 60.139,21.775 59.813,21.642C59.518,21.519 59.253,21.333 59.038,21.097C58.823,20.85 58.658,20.564 58.552,20.254C58.433,19.908 58.374,19.544 58.379,19.178C58.378,18.818 58.439,18.46 58.559,18.121C58.89,17.144 59.818,16.488 60.848,16.501C61.221,16.493 61.589,16.58 61.919,16.754C62.216,16.917 62.473,17.145 62.669,17.422C62.87,17.712 63.015,18.038 63.094,18.382C63.181,18.751 63.213,19.131 63.187,19.51L59.721,19.51C59.692,19.866 59.803,20.219 60.029,20.495ZM61.549,17.836C61.352,17.64 61.081,17.538 60.804,17.557C60.622,17.55 60.442,17.591 60.281,17.674C60.153,17.745 60.04,17.839 59.948,17.953C59.867,18.06 59.806,18.181 59.768,18.31C59.736,18.417 59.716,18.528 59.708,18.64L61.856,18.64C61.837,18.347 61.73,18.067 61.549,17.836L61.549,17.836Z" style="fill:rgb(0,87,255);fill-rule:nonzero;"/>
            </g>
            <g id="rectangle" transform="matrix(1,0,0,1,230.239,308.267)">
                <rect x="0" y="0" width="2.689" height="0.688" style="fill:rgb(0,87,255);"/>
            </g>
        </g>
    </g>
</svg>
