<?xml version="1.0" encoding="UTF-8" standalone="no"?>
<!DOCTYPE svg PUBLIC "-//W3C//DTD SVG 1.1//EN" "http://www.w3.org/Graphics/SVG/1.1/DTD/svg11.dtd">
<svg width="100%" height="100%" viewBox="0 0 16 16" version="1.1" xmlns="http://www.w3.org/2000/svg" xmlns:xlink="http://www.w3.org/1999/xlink" xml:space="preserve" xmlns:serif="http://www.serif.com/" style="fill-rule:evenodd;clip-rule:evenodd;stroke-linejoin:round;stroke-miterlimit:2;">
    <path d="M1.75,2C0.79,2 -0,2.79 0,3.75L0,12.25C0,13.216 0.784,14 1.75,14L14.25,14C15.21,14 16,13.21 16,12.25L16,3.75C16,2.79 15.21,2 14.25,2L1.75,2ZM14.5,4.07L14.5,3.75C14.5,3.613 14.387,3.5 14.25,3.5L1.75,3.5C1.613,3.5 1.5,3.613 1.5,3.75L1.5,4.07L8,7.88L14.5,4.07ZM1.5,5.809L1.5,12.251C1.5,12.389 1.612,12.501 1.75,12.501L14.25,12.501C14.387,12.501 14.5,12.388 14.5,12.251L14.5,5.809L8.38,9.397C8.146,9.535 7.854,9.535 7.62,9.397L1.5,5.809Z"/>
</svg>
