<?xml version="1.0" encoding="UTF-8" standalone="no"?>
<!DOCTYPE svg PUBLIC "-//W3C//DTD SVG 1.1//EN" "http://www.w3.org/Graphics/SVG/1.1/DTD/svg11.dtd">
<svg width="100%" height="100%" viewBox="0 0 16 16" version="1.1" xmlns="http://www.w3.org/2000/svg" xmlns:xlink="http://www.w3.org/1999/xlink" xml:space="preserve" xmlns:serif="http://www.serif.com/" style="fill-rule:evenodd;clip-rule:evenodd;stroke-linejoin:round;stroke-miterlimit:2;">
    <path d="M1.5,14.25C1.5,14.388 1.612,14.5 1.75,14.5L4,14.5L4,13.25C4,12.839 4.339,12.5 4.75,12.5L7.25,12.5C7.661,12.5 8,12.839 8,13.25L8,14.5L10.25,14.5C10.387,14.5 10.5,14.387 10.5,14.25L10.5,1.75C10.5,1.613 10.387,1.5 10.25,1.5L1.75,1.5C1.613,1.5 1.5,1.613 1.5,1.75L1.5,14.25ZM1.75,16C0.79,16 0,15.21 0,14.25L0,1.75C0,0.784 0.784,0 1.75,0L10.25,0C11.216,0 12,0.784 12,1.75L12,14.25C12,14.335 11.994,14.418 11.982,14.5L14.25,14.5C14.387,14.5 14.5,14.387 14.5,14.25L14.5,8.285C14.5,8.202 14.458,8.123 14.389,8.077L13.334,7.374C13.122,7.236 12.993,6.999 12.993,6.745C12.993,6.334 13.332,5.995 13.743,5.995C13.894,5.995 14.041,6.041 14.166,6.126L15.221,6.829C15.708,7.154 16,7.7 16,8.285L16,14.25C16,15.21 15.21,16 14.25,16L10.75,16C10.683,16 10.617,15.991 10.553,15.974C10.454,15.991 10.353,16 10.25,16L7.25,16C6.839,16 6.5,15.661 6.5,15.25L6.5,14L5.5,14L5.5,15.25C5.5,15.661 5.161,16 4.75,16L1.75,16ZM3,3.75C3,3.339 3.339,3 3.75,3L4.25,3C4.661,3 5,3.339 5,3.75C5,4.161 4.661,4.5 4.25,4.5L3.75,4.5C3.339,4.5 3,4.161 3,3.75ZM3.75,6C3.339,6 3,6.339 3,6.75C3,7.161 3.339,7.5 3.75,7.5L4.25,7.5C4.661,7.5 5,7.161 5,6.75C5,6.339 4.661,6 4.25,6L3.75,6ZM3,9.75C3,9.339 3.339,9 3.75,9L4.25,9C4.661,9 5,9.339 5,9.75C5,10.161 4.661,10.5 4.25,10.5L3.75,10.5C3.339,10.5 3,10.161 3,9.75ZM7.75,9C7.339,9 7,9.339 7,9.75C7,10.161 7.339,10.5 7.75,10.5L8.25,10.5C8.661,10.5 9,10.161 9,9.75C9,9.339 8.661,9 8.25,9L7.75,9ZM7,6.75C7,6.339 7.339,6 7.75,6L8.25,6C8.661,6 9,6.339 9,6.75C9,7.161 8.661,7.5 8.25,7.5L7.75,7.5C7.339,7.5 7,7.161 7,6.75ZM7.75,3C7.339,3 7,3.339 7,3.75C7,4.161 7.339,4.5 7.75,4.5L8.25,4.5C8.661,4.5 9,4.161 9,3.75C9,3.339 8.661,3 8.25,3L7.75,3Z"/>
</svg>
