<?xml version="1.0" encoding="UTF-8" standalone="no"?>
<!DOCTYPE svg PUBLIC "-//W3C//DTD SVG 1.1//EN" "http://www.w3.org/Graphics/SVG/1.1/DTD/svg11.dtd">
<svg width="100%" height="100%" viewBox="0 0 16 16" version="1.1" xmlns="http://www.w3.org/2000/svg" xmlns:xlink="http://www.w3.org/1999/xlink" xml:space="preserve" xmlns:serif="http://www.serif.com/" style="fill-rule:evenodd;clip-rule:evenodd;stroke-linejoin:round;stroke-miterlimit:2;">
    <path d="M2,2.5C2,1.129 3.129,0 4.5,0L13.25,0C13.661,-0 14,0.339 14,0.75L14,13.25C14,13.661 13.661,14 13.25,14L10.75,14C10.339,14 10,13.661 10,13.25C10,12.839 10.339,12.5 10.75,12.5L12.5,12.5L12.5,10.5L4.5,10.5C3.951,10.5 3.5,10.951 3.5,11.5C3.5,11.762 3.603,12.013 3.786,12.2C3.923,12.34 4,12.529 4,12.725C4,13.137 3.662,13.475 3.25,13.475C3.048,13.475 2.855,13.394 2.714,13.25C2.256,12.783 1.999,12.154 2,11.5L2,2.5ZM12.5,1.5L12.5,9L4.5,9C4.144,9 3.806,9.074 3.5,9.208L3.5,2.5C3.5,1.951 3.951,1.5 4.5,1.5L12.5,1.5ZM5,12.25L5,15.5C5,15.637 5.113,15.75 5.25,15.75C5.304,15.75 5.357,15.732 5.4,15.7L6.85,14.613C6.939,14.547 7.061,14.547 7.15,14.613L8.6,15.7C8.643,15.732 8.696,15.75 8.75,15.75C8.887,15.75 9,15.637 9,15.5L9,12.25C9,12.113 8.887,12 8.75,12L5.25,12C5.113,12 5,12.113 5,12.25Z"/>
</svg>
