<?xml version="1.0" encoding="UTF-8" standalone="no"?>
<!DOCTYPE svg PUBLIC "-//W3C//DTD SVG 1.1//EN" "http://www.w3.org/Graphics/SVG/1.1/DTD/svg11.dtd">
<svg width="100%" height="100%" viewBox="0 0 40 40" version="1.1" xmlns="http://www.w3.org/2000/svg" xmlns:xlink="http://www.w3.org/1999/xlink" xml:space="preserve" xmlns:serif="http://www.serif.com/" style="fill-rule:evenodd;clip-rule:evenodd;stroke-linejoin:round;stroke-miterlimit:2;">
    <path d="M3.75,7.5C3.75,6.119 4.869,5 6.25,5L17.5,5L17.5,35L6.25,35C4.869,35 3.75,33.881 3.75,32.5L3.75,7.5Z" style="fill:rgb(27,28,31);fill-rule:nonzero;"/>
    <path d="M3.75,7.5C3.75,6.119 4.869,5 6.25,5L17.5,5L17.5,35L6.25,35C4.869,35 3.75,33.881 3.75,32.5L3.75,7.5Z" style="fill:white;fill-opacity:0.4;fill-rule:nonzero;"/>
    <path d="M33.75,34.451C35.098,34.454 36.25,33.36 36.25,31.951L36.25,6.8C36.25,5.39 35.098,4.296 33.75,4.299L33.75,34.451Z" style="fill:rgb(27,28,31);fill-rule:nonzero;"/>
    <path d="M33.75,34.451C35.098,34.454 36.25,33.36 36.25,31.951L36.25,6.8C36.25,5.39 35.098,4.296 33.75,4.299L33.75,34.451Z" style="fill:white;fill-opacity:0.4;fill-rule:nonzero;"/>
    <path d="M18.75,5L29.553,3.036C31.087,2.757 32.5,3.936 32.5,5.496L32.5,34.505C32.5,36.064 31.087,37.243 29.553,36.964L18.75,35L18.75,5Z" style="fill:rgb(27,28,31);fill-rule:nonzero;"/>
    <path d="M18.75,5L29.553,3.036C31.087,2.757 32.5,3.936 32.5,5.496L32.5,34.505C32.5,36.064 31.087,37.243 29.553,36.964L18.75,35L18.75,5Z" style="fill:white;fill-opacity:0.02;fill-rule:nonzero;"/>
</svg>
