<?xml version="1.0" encoding="UTF-8" standalone="no"?>
<!DOCTYPE svg PUBLIC "-//W3C//DTD SVG 1.1//EN" "http://www.w3.org/Graphics/SVG/1.1/DTD/svg11.dtd">
<svg width="100%" height="100%" viewBox="0 0 24 24" version="1.1" xmlns="http://www.w3.org/2000/svg" xmlns:xlink="http://www.w3.org/1999/xlink" xml:space="preserve" xmlns:serif="http://www.serif.com/" style="fill-rule:evenodd;clip-rule:evenodd;stroke-linejoin:round;stroke-miterlimit:2;">
    <path d="M0,6C0,2.685 2.685,0 6,0L18,0C21.315,0 24,2.685 24,6L24,18C24,21.315 21.315,24 18,24L6,24C2.685,24 0,21.315 0,18L0,6Z" style="fill:rgb(13,153,255);fill-rule:nonzero;"/>
    <path d="M13.085,8.201L13.07,8.198L7.435,6.585L11.61,10.762C11.76,10.709 11.921,10.68 12.089,10.68C12.875,10.68 13.511,11.317 13.511,12.105C13.511,12.893 12.875,13.532 12.089,13.532C11.303,13.532 10.665,12.893 10.665,12.107C10.665,11.93 10.698,11.762 10.755,11.604L6.588,7.437L8.133,12.837L8.145,12.882L8.154,12.926C8.532,14.758 10.154,16.136 12.089,16.136C12.53,16.136 12.953,16.063 13.349,15.933L14.051,15.701L14.574,16.226L16.146,17.801L17.805,16.139L16.211,14.541L15.696,14.025L15.917,13.331C16.04,12.945 16.105,12.536 16.105,12.105C16.105,10.23 14.828,8.654 13.098,8.205L13.083,8.201L13.085,8.201ZM19.5,16.14L16.995,18.653L16.146,19.502L15.299,18.653L13.723,17.073C13.209,17.244 12.659,17.336 12.089,17.336C9.57,17.336 7.468,15.548 6.979,13.169L4.888,5.859L4.5,4.5L5.859,4.888L13.4,7.043C15.647,7.626 17.306,9.672 17.306,12.105C17.306,12.66 17.22,13.192 17.061,13.695L19.5,16.14Z" style="fill:white;"/>
</svg>
